<?xml version="1.0" encoding="iso-8859-1"?>
<!-- Generator: Adobe Illustrator 19.0.0, SVG Export Plug-In . SVG Version: 6.00 Build 0)  -->
<svg version="1.1" id="Layer_1" xmlns="http://www.w3.org/2000/svg" xmlns:xlink="http://www.w3.org/1999/xlink" x="0px" y="0px"
	 viewBox="0 0 512 512" style="enable-background:new 0 0 512 512;" xml:space="preserve">
<g>
	<path style="fill:#695F53;" d="M268.611,356.061l-14.888-29.776l7.975-23.941l1.613,0.018c0.98,0.011,1.964,0.017,2.953,0.017
		c7.441,0,14.529-0.325,21.068-0.969l5.558-0.546l-3.677,4.203c-2.443,2.792-5.12,5.315-7.958,7.496
		c-5.411,4.17-9.7,5.783-9.881,5.85c-3.04,1.053-4.72,4.155-3.952,7.232l3.682,14.751c0.679,2.708,3.103,4.601,5.895,4.601
		c0.248,0,0.497-0.016,0.748-0.046l6.683-0.807c0.164-0.021,0.342-0.032,0.519-0.032c1.829,0,3.439,1.172,4.006,2.915l2.914,9.032
		h-23.259V356.061z"/>
	<path style="fill:#695F53;" d="M286.853,347.712l1.979,6.137h-18.854l-13.867-27.734l7.177-21.542
		c7.929,0.088,16.156-0.166,24.262-0.962c-2.322,2.654-4.866,5.066-7.641,7.199c-5.208,4.014-9.3,5.529-9.3,5.529
		c-4.058,1.404-6.37,5.673-5.33,9.842l3.682,14.752c1.017,4.058,4.899,6.723,9.057,6.215l6.679-0.807
		C285.648,346.219,286.555,346.794,286.853,347.712z"/>
	<path style="fill:#695F53;" d="M80.505,338.368l15.222-27.712l3.722,6.507l-5.466,16.387c-0.965,2.883-3.653,4.818-6.687,4.818
		H80.505z"/>
	<path style="fill:#695F53;" d="M95.766,315.177l1.272,2.223l-5.153,15.448c-0.663,1.979-2.499,3.306-4.589,3.306h-3.052
		L95.766,315.177z"/>
</g>
<g>
	<path style="fill:#B8A791;" d="M135.674,356.061l-31.755-55.577c-0.454-0.831-0.373-1.529-0.229-1.976
		c3.944-12.871,12.632-45.545,7.895-70.218c-0.555-2.857-3.068-4.935-5.975-4.935c-0.385,0-0.774,0.038-1.157,0.111
		c-3.288,0.64-5.455,3.839-4.824,7.132c0.22,1.118,0.417,2.376,0.619,3.95l0.086,0.675l-0.307,0.606
		c-8.033,15.862-26.728,34.053-54.065,52.605c-10.702,7.262-20.758,13.224-27.308,16.946l-3.744,2.128l0.452-4.283
		c1.429-13.525,5.35-38.337,15.565-52.536c7.535-10.481,36.541-34.243,72.037-55.866c40.622-24.732,77.054-38.916,99.957-38.916
		c29.896,0,53.917,5.033,77.147,9.898c19.08,4.01,37.095,7.795,55.552,7.795c22.459,0,35.837,8.679,47.638,16.336
		c7.543,4.881,14.657,9.487,22.609,10.179c1.914,0.169,4.141,0.546,6.812,1.152l4.204,0.955l-3.229,2.856
		c-2.455,2.172-4.312,4.792-5.518,7.785c-3.196,7.938-1.115,17.183,5.179,23.006c1.13,1.037,2.599,1.612,4.127,1.612
		c1.716,0,3.303-0.694,4.469-1.955c2.27-2.465,2.119-6.322-0.342-8.596c-2.603-2.41-3.465-6.241-2.144-9.536
		c1.321-3.275,4.456-5.389,7.99-5.389c1.1,0,2.178,0.209,3.204,0.623c3.52,1.417,5.673,4.901,5.36,8.671
		c-0.266,3.34,2.232,6.28,5.57,6.547c0.166,0.013,0.333,0.02,0.498,0.02c3.146,0,5.806-2.455,6.057-5.588
		c0.146-1.72,0.069-3.466-0.229-5.201l-0.681-3.971l3.716,1.557c1.514,0.635,2.906,1.236,4.108,1.759l0.536,0.233l25.263,33.691
		l16.811,33.611v3.022l-19.986,6.667l-33.143-16.565c-0.838-0.419-1.777-0.64-2.716-0.64h-17.693
		c-12.543,0-19.752-15.175-20.507-21.212c-0.377-3.039-2.961-5.328-6.013-5.328c-0.254,0-0.512,0.017-0.771,0.049
		c-1.618,0.2-3.055,1.017-4.053,2.301c-0.996,1.282-1.432,2.874-1.229,4.483c0.354,2.845,1.355,6.239,2.815,9.56l0.609,1.386
		l-10.535,10.535c-1.151,1.151-1.785,2.682-1.785,4.308v26.54c0,1.357,0.44,2.645,1.274,3.723
		c4.458,5.766,27.719,34.527,47.947,34.527c0.793,0,1.589-0.05,2.365-0.148c0.365-0.044,0.712-0.064,1.06-0.064
		c3.22,0,6.596,1.709,10.033,5.08l3.89,3.816l-5.45-0.025c-8.683-0.04-18.86-0.077-27.543-0.077c-9.028,0-15.016,0.041-17.799,0.121
		l-0.435,0.012l-0.407-0.153c-7.793-2.927-44.91-23.81-63.211-34.879c-7.543-4.557-17.951-33.816-23.692-66.612
		c-0.515-2.918-3.033-5.039-5.988-5.039c-0.349,0-0.704,0.031-1.053,0.092c-3.299,0.582-5.52,3.741-4.946,7.041
		c0.022,0.125,2.207,12.615,6.109,27.417l0.581,2.203l-2.218,0.515c-10.218,2.374-22.528,3.578-36.589,3.58
		c-27.369,0-52.562-4.6-53.622-4.795c-0.394-0.074-0.777-0.111-1.158-0.111c-1.445,0-2.843,0.514-3.936,1.45
		c-15.274,13.011-54.238,22.6-67.963,25.197c-1.603,0.302-2.989,1.209-3.9,2.552c-0.905,1.325-1.25,2.985-0.951,4.56l4.423,23.221
		c0.349,1.806,1.477,3.345,3.092,4.219c0.881,0.473,1.881,0.725,2.885,0.725c0.806,0,1.59-0.157,2.33-0.467l3.689-1.528
		c0.794-0.333,1.642-0.503,2.511-0.503c2.202,0,4.238,1.091,5.445,2.919l5.632,8.429h-29.352V356.061z"/>
	<path style="fill:#B8A791;" d="M495.412,284.481v0.907l-17.605,5.873l-32.323-16.156c-1.15-0.575-2.422-0.874-3.705-0.874h-17.693
		c-11.014,0-17.649-13.967-18.313-19.275c-0.564-4.545-4.711-7.774-9.256-7.199c-4.545,0.564-7.774,4.711-7.199,9.256
		c0.365,2.93,1.36,6.48,2.986,10.174l-9.466,9.466c-1.559,1.559-2.433,3.671-2.433,5.872v26.54c0,1.836,0.608,3.616,1.736,5.076
		c4.711,6.093,28.508,35.387,49.696,35.387c0.885,0,1.769-0.055,2.643-0.166c3.163-0.376,6.403,1.592,9.267,4.401
		c-16.687-0.077-38.892-0.144-45.416,0.044c-7.42-2.787-44.233-23.444-62.844-34.701c-6.06-3.66-16.444-29.603-22.658-65.1
		c-0.796-4.512-5.087-7.531-9.599-6.746c-4.512,0.796-7.531,5.087-6.746,9.599c0.1,0.575,2.289,12.96,6.148,27.602
		c-36.78,8.548-88.776-1.139-89.318-1.239c-2.466-0.464-5.009,0.199-6.922,1.836c-14.929,12.717-53.378,22.139-66.936,24.704
		c-2.167,0.409-4.081,1.659-5.319,3.483c-1.239,1.814-1.703,4.058-1.294,6.215l4.423,23.222c0.476,2.455,2.024,4.567,4.213,5.75
		c2.201,1.183,4.821,1.316,7.122,0.354l3.682-1.526c1.902-0.796,4.125-0.133,5.264,1.592l3.34,4.998h-23.93l-31.118-54.462
		c-0.066-0.122-0.055-0.166-0.044-0.199c4.003-13.06,12.794-46.146,7.962-71.315c-0.874-4.501-5.22-7.442-9.72-6.58
		c-4.49,0.874-7.442,5.22-6.58,9.72c0.243,1.239,0.431,2.521,0.597,3.815c-7.862,15.526-26.286,33.418-53.334,51.775
		c-10.185,6.911-19.861,12.706-27.159,16.853c1.703-16.123,5.949-38.671,15.161-51.476c7.409-10.306,36.138-33.794,71.392-55.268
		c40.285-24.527,76.302-38.593,98.806-38.593c29.669,0,53.577,5.009,76.7,9.853c19.208,4.036,37.355,7.84,55.999,7.84
		c21.774,0,34.878,8.482,46.434,15.979c7.774,5.032,15.117,9.787,23.621,10.527c1.88,0.166,4.081,0.553,6.513,1.106
		c-2.599,2.3-4.722,5.186-6.104,8.614c-3.539,8.791-1.227,19.02,5.728,25.456c1.603,1.472,3.616,2.201,5.629,2.201
		c2.234,0,4.456-0.896,6.093-2.665c3.107-3.373,2.897-8.616-0.464-11.723c-1.935-1.791-2.577-4.633-1.592-7.088
		c1.316-3.262,5.043-4.855,8.316-3.539c2.61,1.051,4.213,3.638,3.981,6.436c-0.365,4.567,3.041,8.57,7.597,8.935
		c4.578,0.365,8.57-3.03,8.935-7.597c0.166-1.957,0.066-3.881-0.254-5.75c1.504,0.63,2.886,1.227,4.081,1.747l24.793,33.064
		L495.412,284.481z"/>
</g>
<path style="fill:#3D484A;" d="M512,282.523v8.847c0,3.572-2.289,6.734-5.673,7.862l-26.54,8.847
	c-2.079,0.697-4.357,0.542-6.325-0.442l-33.639-16.82h-15.736c-9.267,0-16.72-4.069-22.316-9.632l-4.777,4.766v20.17
	c2.455,2.953,7.287,8.515,13.049,13.867c13.834,12.828,20.668,13.115,22.448,12.905c17.218-2.101,29.824,15.273,34.557,25.865
	c1.15,2.566,0.907,5.551-0.63,7.918c-1.537,2.355-4.169,3.738-7,3.76c-21.862-0.144-57.791-0.276-61.13-0.033
	c-0.365,0.033-0.719,0.066-1.128,0.066c-2.698,0-7.498-1.603-32.246-15.316c-14.475-8.006-30.079-17.063-38.007-21.851
	c-4.6-2.787-11.213-8.99-18.644-30.222c-8.139,13.9-18.512,21.674-25.268,25.578l0.288,1.15c8.603-0.774,16.676,4.535,19.352,12.794
	l5.496,16.986c0.807,2.521,0.376,5.286-1.194,7.431c-1.559,2.145-4.047,3.417-6.701,3.417h-35.387c-3.141,0-6.016-1.78-7.42-4.589
	l-17.693-35.387c-0.984-1.968-1.139-4.246-0.453-6.325l6.757-20.259c-14.409-0.984-26.274-2.742-32.069-3.705
	c-17.384,12.629-48.535,20.812-63.309,24.162l1.161,6.104c7.553-0.763,15.161,2.643,19.529,9.212l11.932,17.892
	c1.692,2.543,1.858,5.817,0.409,8.515c-1.438,2.698-4.246,4.379-7.31,4.379h-44.233c-2.975,0-5.728-1.592-7.199-4.18l-16.875-29.526
	l-0.453,1.36c-2.919,8.758-11.091,14.652-20.325,14.652H70.221c-2.93,0-5.64-1.548-7.144-4.069
	c-1.482-2.521-1.537-5.651-0.122-8.216l28.752-52.35c0.011-0.022,0.033-0.044,0.044-0.077c1.626-5.938,3.649-14.287,5.076-23.377
	c-30.443,33.23-82.174,59.35-84.828,60.677c-1.161,0.586-2.433,0.874-3.705,0.874c-1.537,0-3.074-0.431-4.412-1.272
	c-2.455-1.548-3.926-4.257-3.881-7.155c0.033-2.035,0.984-50.072,19.252-75.484c9.864-13.723,41.933-38.859,76.236-59.748
	c25.158-15.316,72.565-41.015,107.431-41.015c31.395,0,57.271,5.419,80.095,10.207c19.153,4.014,35.685,7.486,52.604,7.486
	c26.673,0,43.304,10.771,55.457,18.644c6.248,4.047,11.644,7.542,16.035,7.928c17.837,1.548,51.93,16.665,55.756,18.39
	c1.283,0.575,2.4,1.46,3.24,2.588l26.54,35.387c0.299,0.398,0.564,0.818,0.785,1.261l17.693,35.387
	C511.701,279.968,512,281.229,512,282.523z M495.412,285.386v-0.907l-16.488-32.965l-24.793-33.064
	c-1.194-0.52-2.577-1.117-4.081-1.747c0.321,1.869,0.42,3.793,0.254,5.75c-0.365,4.567-4.357,7.962-8.935,7.597
	c-4.556-0.365-7.962-4.368-7.597-8.935c0.232-2.798-1.371-5.385-3.981-6.436c-3.273-1.316-7,0.276-8.316,3.539
	c-0.984,2.455-0.343,5.297,1.592,7.088c3.362,3.107,3.572,8.349,0.464,11.723c-1.637,1.769-3.859,2.665-6.093,2.665
	c-2.013,0-4.025-0.73-5.629-2.201c-6.956-6.436-9.267-16.665-5.728-25.456c1.382-3.428,3.505-6.314,6.104-8.614
	c-2.433-0.553-4.633-0.94-6.513-1.106c-8.504-0.741-15.847-5.496-23.62-10.527c-11.556-7.498-24.66-15.979-46.434-15.979
	c-18.644,0-36.791-3.804-55.999-7.84c-23.123-4.844-47.031-9.853-76.7-9.853c-22.504,0-58.52,14.066-98.806,38.593
	c-35.254,21.474-63.983,44.963-71.392,55.268c-9.212,12.805-13.458,35.353-15.161,51.476c7.298-4.147,16.974-9.941,27.159-16.853
	c27.049-18.357,45.472-36.249,53.334-51.775c-0.166-1.294-0.354-2.577-0.597-3.815c-0.863-4.501,2.09-8.847,6.58-9.72
	c4.501-0.863,8.847,2.079,9.72,6.58c4.832,25.169-3.959,58.255-7.962,71.315c-0.011,0.033-0.022,0.077,0.044,0.199l31.118,54.462
	h23.93l-3.34-4.998c-1.139-1.725-3.362-2.389-5.264-1.592l-3.682,1.526c-2.3,0.962-4.921,0.829-7.122-0.354
	c-2.19-1.183-3.738-3.295-4.213-5.75l-4.423-23.222c-0.409-2.156,0.055-4.401,1.294-6.215c1.239-1.825,3.152-3.074,5.319-3.483
	c13.557-2.566,52.007-11.987,66.936-24.704c1.913-1.637,4.456-2.3,6.922-1.836c0.542,0.1,52.538,9.787,89.318,1.239
	c-3.859-14.641-6.049-27.026-6.148-27.602c-0.785-4.512,2.234-8.802,6.746-9.599c4.512-0.785,8.802,2.234,9.599,6.746
	c6.215,35.497,16.599,61.44,22.658,65.1c18.611,11.257,55.424,31.914,62.844,34.701c6.524-0.188,28.729-0.122,45.416-0.044
	c-2.864-2.809-6.104-4.777-9.267-4.401c-0.874,0.111-1.758,0.166-2.643,0.166c-21.188,0-44.985-29.293-49.696-35.387
	c-1.128-1.46-1.736-3.24-1.736-5.076v-26.54c0-2.201,0.874-4.313,2.433-5.872l9.466-9.466c-1.626-3.693-2.621-7.243-2.986-10.174
	c-0.575-4.545,2.654-8.692,7.199-9.256c4.545-0.575,8.692,2.654,9.256,7.199c0.664,5.308,7.298,19.275,18.313,19.275h17.693
	c1.283,0,2.554,0.299,3.705,0.874l32.323,16.156L495.412,285.386z M288.832,353.849l-1.979-6.137
	c-0.299-0.918-1.205-1.493-2.156-1.371l-6.679,0.807c-4.158,0.509-8.039-2.156-9.057-6.215l-3.682-14.752
	c-1.039-4.169,1.272-8.437,5.33-9.842c0,0,4.092-1.515,9.3-5.529c2.776-2.134,5.319-4.545,7.641-7.199
	c-8.106,0.796-16.333,1.051-24.262,0.962l-7.177,21.542l13.867,27.734L288.832,353.849L288.832,353.849z M97.037,317.401
	l-1.272-2.223l-11.523,20.978h3.052c2.09,0,3.926-1.327,4.589-3.306L97.037,317.401z"/>
<g>
</g>
<g>
</g>
<g>
</g>
<g>
</g>
<g>
</g>
<g>
</g>
<g>
</g>
<g>
</g>
<g>
</g>
<g>
</g>
<g>
</g>
<g>
</g>
<g>
</g>
<g>
</g>
<g>
</g>
</svg>
